<svg
  xmlns="http://www.w3.org/2000/svg"
  version="1.2"
  baseProfile="tiny-ps"
  width="512"
  height="512"
  viewBox="0 0 512 512"
>
  <title>JuroSec</title>
  <desc>AI-powered Third Party Risk Management Platform</desc>
  <rect width="512" height="512" fill="#FFFFFF"/>
  <path fill="#cd3b3b" d="M 237.5,190.5 C 235.026,238.471 210.36,267.638 163.5,278C 151.372,278.897 139.372,278.064 127.5,275.5C 117.051,273.786 106.551,272.453 96,271.5C 85.5218,272.739 75.0218,273.239 64.5,273C 62.1853,271.891 60.6853,270.057 60,267.5C 63.409,249.256 68.0757,231.256 74,213.5C 77.602,204.939 83.102,197.939 90.5,192.5C 95.6603,189.755 100.994,187.255 106.5,185C 113.185,184.051 119.851,183.051 126.5,182C 128.619,181.658 128.953,180.825 127.5,179.5C 130.089,178.581 132.089,176.914 133.5,174.5C 142.579,182.074 151.245,190.241 159.5,199C 168.758,206.632 177.592,206.132 186,197.5C 190.069,191.307 190.403,184.973 187,178.5C 177.054,168.554 167.054,158.554 157,148.5C 156.536,147.906 156.369,147.239 156.5,146.5C 168.968,132.526 181.302,118.36 193.5,104C 202.8,100.649 209.3,103.483 213,112.5C 221.462,133.886 229.129,155.553 236,177.5C 236.735,181.813 237.235,186.147 237.5,190.5 Z"/>
    <path fill="#941b1b" d="M 156.5,146.5 C 156.369,147.239 156.536,147.906 157,148.5C 167.054,158.554 177.054,168.554 187,178.5C 190.403,184.973 190.069,191.307 186,197.5C 177.592,206.132 168.758,206.632 159.5,199C 151.245,190.241 142.579,182.074 133.5,174.5C 117.812,159.646 102.646,144.312 88,128.5C 84.1619,116.678 87.9952,108.511 99.5,104C 104.403,103.063 109.07,103.73 113.5,106C 127.703,119.705 142.036,133.205 156.5,146.5 Z"/>
    <path fill="#941b1b" d="M 127.5,179.5 C 128.953,180.825 128.619,181.658 126.5,182C 119.851,183.051 113.185,184.051 106.5,185C 100.994,187.255 95.6603,189.755 90.5,192.5C 80.9005,184.404 71.7338,175.737 63,166.5C 57.85,151.499 63.0166,142.499 78.5,139.5C 82.9835,139.785 86.9835,141.285 90.5,144C 102.866,155.84 115.199,167.674 127.5,179.5 Z"/>
    <path fill="#941b1b" d="M 422.5,358.5 C 424.629,340.197 419.296,324.364 406.5,311C 390.6,297.981 372.934,294.981 353.5,302C 327.444,316.614 319.111,338.114 328.5,366.5C 316.5,366.5 304.5,366.5 292.5,366.5C 300.32,337.438 290.987,315.938 264.5,302C 234.998,293.053 213.165,302.219 199,329.5C 194.897,340.674 194.397,352.007 197.5,363.5C 188.728,361.116 180.395,357.616 172.5,353C 165.367,348.359 158.7,343.192 152.5,337.5C 136.452,320.053 128.118,299.386 127.5,275.5C 139.372,278.064 151.372,278.897 163.5,278C 210.36,267.638 235.026,238.471 237.5,190.5C 276.801,166.831 316.134,166.664 355.5,190C 366.425,198.254 376.758,207.254 386.5,217C 409.296,233.045 434.629,242.378 462.5,245C 468.698,250.426 471.032,257.259 469.5,265.5C 469.456,299.159 457.456,327.659 433.5,351C 429.805,353.51 426.138,356.01 422.5,358.5 Z"/>
    <path fill="#fed1d1" d="M 135.5,191.5 C 146.211,190.101 153.378,194.434 157,204.5C 158.511,214.309 154.678,221.143 145.5,225C 129.184,226.349 122.017,218.849 124,202.5C 126.412,197.252 130.246,193.586 135.5,191.5 Z"/>
    <path fill="#cd3a3a" d="M 292.5,366.5 C 290.728,372.362 289.728,378.362 289.5,384.5C 286.578,405.185 274.912,417.685 254.5,422C 240.468,422.781 226.468,422.614 212.5,421.5C 205.21,417.695 200.71,411.695 199,403.5C 199.241,397.346 199.741,391.179 200.5,385C 200.263,377.587 199.263,370.421 197.5,363.5C 194.397,352.007 194.897,340.674 199,329.5C 213.165,302.219 234.998,293.053 264.5,302C 290.987,315.938 300.32,337.438 292.5,366.5 Z"/>
    <path fill="#cd3a3a" d="M 422.5,358.5 C 426.86,408.301 404.193,429.468 354.5,422C 352.753,421.648 351.086,421.148 349.5,420.5C 338.376,411.982 334.209,400.649 337,386.5C 334.427,379.692 331.594,373.025 328.5,366.5C 319.111,338.114 327.444,316.614 353.5,302C 372.934,294.981 390.6,297.981 406.5,311C 419.296,324.364 424.629,340.197 422.5,358.5 Z"/>
    <path fill="#720e0e" d="M 152.5,337.5 C 158.7,343.192 165.367,348.359 172.5,353C 180.395,357.616 188.728,361.116 197.5,363.5C 199.263,370.421 200.263,377.587 200.5,385C 199.741,391.179 199.241,397.346 199,403.5C 200.71,411.695 205.21,417.695 212.5,421.5C 199.192,422.592 185.859,422.758 172.5,422C 164.099,419.932 158.599,414.766 156,406.5C 155.339,399.428 155.839,392.428 157.5,385.5C 154.301,369.645 152.634,353.645 152.5,337.5 Z"/>
    <path fill="#720e0e" d="M 292.5,366.5 C 304.5,366.5 316.5,366.5 328.5,366.5C 331.594,373.025 334.427,379.692 337,386.5C 334.209,400.649 338.376,411.982 349.5,420.5C 341.806,422.052 333.973,422.719 326,422.5C 320.167,422.333 314.333,422.167 308.5,422C 301.255,420.423 296.089,416.256 293,409.5C 292.131,400.992 290.964,392.658 289.5,384.5C 289.728,378.362 290.728,372.362 292.5,366.5 Z"/>
</svg>
